<svg width="40mm" height="33.652mm" 
 viewBox="0 0 283.27 238.31" xmlns="http://www.w3.org/2000/svg">

  
  <path fill="#FEFEFE" d="m128.03 0.59c-5.68 1.8-10.04 6.39-13.42 10.27-3.34 3.84-8.12 7.94-11.94 11.61-11 10.58-25.04 25.18-35.78 35.24-2.15 2.02-3.98 3.81-6.1 5.87-14.97 14.55-8.52 11.97-23.39 11.97-7.98 0-15.96 0.01-23.94-0-7.02-0.01-12.69 2.76-13.15 10.51-0.44 7.47-0.02 16.33-0.02 23.96 0 7.98-1.14 41.73 1.13 46.36 3.22 6.58 8.5 6.25 17.23 6.25h23.94c7.61-0 5.08-1.08 15 8.62l59.8 58.72c3.06 2.97 8.02 9.22 15.41 8.25 6.22-0.82 8.89-7.99 9.03-14.85 0.33-15.69 0.01-31.77 0.01-47.5v-142.46c0-6.62 0.61-17.03-0.24-23.15-0.91-6.57-5.87-12.11-13.55-9.67zm80.85 10.68c-5.01 1.63-9.41 6.86-7.15 13.83 1.84 5.69 7.4 7.01 12.33 10 6.64 4.03 13.63 9.37 18.88 14.64l5.53 6.03c7.89 10.32 11.6 15.51 16.7 28.41 4.38 11.08 6.83 25.34 6.31 38.62-1.17 30.01-15.45 56.3-38.08 73.87-13.62 10.57-24.63 10.47-22.74 22.23 0.93 5.78 7.17 9.96 13.45 8.37 7.17-1.81 20.87-12.29 27.22-17.47 7.19-5.86 16.04-15.73 21.34-23.76 12.62-19.1 20.9-40.67 20.59-69.65-0.31-28.92-14.19-61.26-32.78-79.41-8.7-8.5-13.41-13.2-24.93-20.15-3.55-2.14-11.12-7.38-16.66-5.58zm-23.74 30.02c-9.67 2.77-10.44 15.15-2.58 19.72 14.69 8.52 24.48 18.22 30.79 33.85 9.86 24.43 3.34 55.15-16.33 72.25-2.83 2.47-5.64 4.96-8.94 7.01-3.52 2.18-7.49 3.51-9.47 6.88-5.03 8.55 2.88 19.35 12.77 15.97 5.74-1.96 14.82-9.31 19.33-13s11.99-12.59 14.93-17.39c24.5-39.94 16.53-86.09-18.6-115.3-3.11-2.59-6.14-4.48-9.66-6.69-3.27-2.06-7.23-4.74-12.25-3.3zm-27.49 35.56c-10.07 2.72-12.8 17.19 1.27 21.37 19.13 5.68 21.06 31.98 3.02 40.58-2.28 1.09-5.11 1.51-7.08 2.88-10.11 7-3.13 22.73 9.09 19.48 18.02-4.79 33.66-22.18 32.17-45.52-0.75-11.71-6.55-20.82-12.24-26.8-5.47-5.76-18.25-14.15-26.22-11.99z"/>
 
</svg>
