<svg width="26.383mm" height="9.7882mm" clip-rule="evenodd" fill-rule="evenodd" image-rendering="optimizeQuality" shape-rendering="geometricPrecision" text-rendering="geometricPrecision" version="1.0" viewBox="0 0 732.72 271.84" xml:space="preserve" xmlns="http://www.w3.org/2000/svg">
  
  
  <path fill="#00A0E3" d="m-0 174.53c11.95 1.49 23.91 3.05 35.87 4.38 18.89 2.1 37.9 3.38 56.86 4.66 32.71 2.21 64.77 6.13 97.29 8.99l3-9.46c-19.52-5.85-38.81-10.84-59.08-13.86-12.42-1.85-24.96-3.15-37.44-4.64-19.41-2.33-38.72-5.05-58.02-8.17l-12.89-1.56c9.09-12.49 19.37-22.37 29.99-31.49 13.95-14.56 31.56-24.8 49.18-34.51 60.77-31.92 124.61-44.81 188.73-14.61 38.63 18.19 71.04 48.43 100.69 78.57 38.76 39.4 85.77 95.28 139.43 112.87 12.55 4.11 25.45 6.22 38.67 6.13 59.56-0.36 117.88-25.22 146.22-80.06 7.45-14.41 12.19-29.96 14.21-46h-9.08c-29.88 115.26-162.95 150.29-249.81 69.45l-0.16-0.14-73.42-79.47c-75.04-81.4-177.42-116.92-282.13-69.75-16.55 7.45-33.05 15.17-48.06 25.47-17.26 11.85-30.13 20.65-43.56 36.59l1.85-17.26c0.61-27.05 13.47-80.49 25.52-110.67l-14.9 1.88c-8.43 11.68-17.89 53.13-21.17 65.21-8.33 30.76-16.41 74.47-17.82 107.44z"/>
 
</svg>
