<?xml version="1.0" encoding="UTF-8" ?>
<!DOCTYPE svg PUBLIC "-//W3C//DTD SVG 1.1//EN" "http://www.w3.org/Graphics/SVG/1.1/DTD/svg11.dtd">
<svg width="630pt" height="227pt" viewBox="0 0 630 227" version="1.1" xmlns="http://www.w3.org/2000/svg">
<g id="#fefefeff">
<path fill="#fefefe" stroke="#fefefe" stroke-width="0.09375" opacity="1.00" d=" M 358.44 0.00 L 384.60 0.00 C 393.78 2.06 403.63 5.80 408.90 14.07 C 412.82 18.83 413.96 24.97 415.43 30.77 C 405.25 31.33 395.09 32.04 384.93 32.70 C 383.21 28.29 381.68 23.13 377.00 20.97 C 371.43 18.46 362.80 18.61 359.31 24.42 C 357.47 28.22 360.79 30.92 363.66 32.26 C 374.09 36.04 385.21 37.57 395.65 41.33 C 403.12 44.08 409.52 49.24 414.56 55.32 C 428.43 23.16 463.19 0.25 498.57 3.49 C 519.96 4.89 540.15 19.73 546.69 40.31 C 552.97 61.40 547.21 84.73 533.79 101.80 C 527.85 109.30 520.93 116.05 513.27 121.79 C 523.28 123.89 533.16 128.07 540.15 135.79 C 543.36 139.68 546.28 143.83 549.00 148.08 C 549.00 139.72 549.00 131.36 549.06 123.00 C 559.70 122.98 570.34 122.99 580.99 123.01 C 581.03 148.66 580.96 174.32 581.02 199.97 C 597.34 200.05 613.67 199.99 630.00 200.00 L 630.00 225.99 C 603.02 226.00 576.04 226.04 549.06 225.97 C 549.00 217.29 549.00 208.62 549.01 199.95 C 544.10 207.49 539.07 215.47 530.89 219.85 C 525.07 223.71 518.21 225.39 511.50 227.00 L 489.52 227.00 C 480.84 225.22 471.85 222.92 464.95 217.06 C 451.36 206.66 445.53 188.63 446.92 171.98 C 446.58 159.14 450.91 146.63 458.62 136.46 C 450.07 134.82 441.53 132.60 434.12 127.84 C 421.42 120.62 413.84 107.17 409.62 93.59 C 401.55 99.85 392.32 105.30 381.85 105.77 C 367.49 106.08 351.23 106.94 338.95 98.05 C 330.45 91.07 325.86 80.61 324.51 69.90 C 334.63 68.91 344.78 67.85 354.98 68.08 C 357.08 72.99 358.66 78.58 363.05 81.98 C 367.71 85.93 374.41 85.32 379.95 84.01 C 386.44 82.28 389.00 72.81 383.49 68.53 C 368.69 60.07 349.15 61.19 336.67 48.33 C 326.07 38.94 326.59 21.04 336.30 11.28 C 341.75 4.54 350.55 2.42 358.44 0.00 M 481.44 9.54 C 449.28 14.25 420.30 40.59 415.21 73.11 C 412.76 89.94 417.88 108.62 431.56 119.45 C 449.99 134.75 477.21 133.82 498.01 124.01 C 521.83 113.57 540.04 90.53 543.71 64.69 C 545.08 50.48 541.47 35.16 531.24 24.75 C 519.02 10.84 499.13 6.74 481.44 9.54 M 494.43 146.49 C 489.56 147.28 485.13 150.52 483.07 155.04 C 478.24 163.24 478.56 173.22 479.58 182.35 C 480.43 187.61 481.50 193.55 485.74 197.26 C 492.47 204.44 504.36 204.37 512.27 199.26 C 520.43 191.99 521.14 179.90 520.43 169.67 C 519.82 162.13 518.43 153.00 510.93 149.10 C 506.41 144.95 499.98 145.70 494.43 146.49 Z" />
<path fill="#fefefe" stroke="#fefefe" stroke-width="0.09375" opacity="1.00" d=" M 7.02 1.02 C 25.83 1.11 44.66 0.58 63.47 1.37 C 73.25 2.09 84.69 2.27 91.81 10.17 C 104.71 22.02 101.48 45.72 86.81 54.77 C 84.00 56.38 80.94 57.48 77.94 58.65 C 83.06 62.93 88.51 67.17 91.83 73.10 C 97.71 83.48 103.14 94.12 108.31 104.88 C 96.20 105.03 84.09 105.04 71.98 105.00 C 64.29 92.50 59.16 78.46 50.25 66.74 C 47.76 63.05 42.95 63.39 39.09 62.49 C 38.94 76.33 39.03 90.16 38.98 104.00 C 28.32 104.00 17.67 104.01 7.01 104.00 C 6.99 69.67 6.98 35.34 7.02 1.02 M 39.01 22.79 C 38.98 29.58 38.98 36.38 39.01 43.17 C 46.79 42.63 54.95 43.16 62.37 40.36 C 68.44 38.03 68.27 28.94 63.74 25.23 C 55.87 21.98 47.27 23.11 39.01 22.79 Z" />
<path fill="#fefefe" stroke="#fefefe" stroke-width="0.09375" opacity="1.00" d=" M 490.96 32.80 C 496.15 31.46 500.62 35.35 504.62 38.00 C 501.07 40.75 497.84 44.12 493.71 45.94 C 490.63 46.07 487.59 45.33 484.56 45.02 C 483.57 47.37 482.79 49.81 482.34 52.32 C 489.38 50.62 495.97 47.47 503.15 46.29 C 513.32 44.43 521.47 57.25 517.02 66.03 C 512.95 73.53 505.42 78.93 497.33 81.35 C 490.85 83.80 485.23 79.13 480.44 75.47 C 483.95 72.55 487.36 69.46 491.19 66.94 C 494.09 67.69 496.75 69.16 499.49 70.36 C 502.70 67.92 505.44 64.79 505.94 60.52 C 496.67 59.46 488.39 65.89 479.10 64.90 C 472.13 62.72 467.87 54.02 471.33 47.33 C 475.52 40.13 482.94 34.89 490.96 32.80 Z" />
<path fill="#fefefe" stroke="#fefefe" stroke-width="0.09375" opacity="1.00" d=" M 446.68 62.33 C 450.73 59.53 454.78 56.69 458.81 53.86 C 465.67 64.15 474.00 73.74 478.82 85.24 C 481.03 97.52 467.60 107.65 456.15 106.87 C 452.03 105.45 448.50 102.75 445.55 99.61 C 448.84 96.49 452.14 93.38 455.48 90.31 C 457.72 91.85 459.97 93.67 462.76 94.04 C 464.37 92.70 465.74 90.50 464.55 88.42 C 459.20 79.33 452.74 70.95 446.68 62.33 Z" />
<path fill="#fefefe" stroke="#fefefe" stroke-width="0.09375" opacity="1.00" d=" M 35.49 121.48 C 49.33 120.52 64.71 120.18 76.75 128.26 C 81.72 131.37 84.16 136.82 87.24 141.56 C 97.14 127.81 114.23 120.35 131.00 121.05 C 141.52 120.98 152.66 122.46 161.59 128.45 C 170.06 134.67 175.28 144.09 179.06 153.68 C 169.59 155.46 160.21 157.70 150.78 159.65 C 148.66 156.30 146.50 152.96 144.05 149.85 C 137.99 143.84 127.65 144.07 121.03 149.06 C 114.76 152.66 113.09 160.60 112.28 167.20 C 112.02 177.29 111.38 188.70 117.69 197.31 C 123.33 203.14 132.75 204.24 139.96 200.87 C 147.37 198.01 148.78 189.47 151.68 183.00 C 161.18 185.61 170.53 188.71 180.05 191.26 C 176.74 200.40 173.54 210.37 165.68 216.66 C 159.58 222.31 151.60 225.24 143.62 227.00 L 120.44 227.00 C 113.92 225.70 107.46 223.67 101.76 220.19 C 97.03 216.79 93.03 212.53 89.04 208.32 C 81.98 218.07 71.47 224.97 59.58 227.00 L 33.43 227.00 C 26.10 225.42 18.51 223.22 12.54 218.48 C 6.14 212.73 2.18 204.74 0.00 196.51 L 0.00 190.92 C 9.99 190.27 19.98 189.13 30.00 189.24 C 31.59 194.11 32.67 199.69 37.15 202.86 C 42.51 207.50 51.08 207.25 57.03 204.03 C 62.65 201.34 62.55 191.75 57.03 189.04 C 45.30 182.95 31.44 182.76 19.97 176.03 C 10.01 171.09 1.62 160.45 3.58 148.81 C 4.81 132.94 20.63 122.61 35.49 121.48 M 34.37 145.39 C 31.80 149.24 35.45 153.71 39.34 154.57 C 52.98 158.47 67.41 160.49 79.86 167.72 C 80.47 162.78 81.27 157.88 82.12 152.97 C 74.60 153.23 67.08 153.55 59.56 153.80 C 57.07 149.41 55.83 142.93 50.16 141.75 C 44.90 140.65 37.37 139.77 34.37 145.39 Z" />
<path fill="#fefefe" stroke="#fefefe" stroke-width="0.09375" opacity="1.00" d=" M 328.28 130.31 C 342.25 120.69 360.36 119.48 376.64 122.29 C 391.08 124.53 404.34 134.28 410.32 147.68 C 413.03 154.78 415.21 162.30 415.09 169.97 C 415.07 181.83 414.63 194.65 407.82 204.89 C 400.80 217.26 387.34 224.67 373.62 227.00 L 351.52 227.00 C 335.72 224.65 321.23 215.49 313.89 201.05 C 313.95 209.36 313.99 217.68 313.99 226.00 C 303.00 226.01 292.02 226.01 281.03 226.00 C 280.98 212.00 281.02 198.00 280.97 184.00 C 269.99 183.99 259.01 183.98 248.03 184.00 C 247.98 198.00 248.02 211.99 247.97 226.00 C 236.98 226.01 226.00 226.01 215.02 226.01 C 214.96 191.68 214.98 157.34 215.01 123.00 C 225.99 122.99 236.96 122.99 247.94 123.00 C 247.99 134.66 247.99 146.33 248.04 158.00 C 259.01 158.00 269.97 158.01 280.94 158.00 C 280.99 146.33 280.99 134.67 281.04 123.00 C 292.02 122.99 302.99 122.99 313.98 122.99 C 314.00 130.99 313.98 138.98 313.91 146.98 C 318.19 141.06 322.00 134.38 328.28 130.31 M 356.42 146.45 C 349.39 147.54 344.70 154.30 342.57 160.60 C 339.82 170.56 340.71 181.39 343.81 191.15 C 349.13 206.09 374.12 206.90 379.72 191.77 C 383.49 184.40 382.82 175.64 382.46 167.66 C 382.01 160.12 378.97 151.78 372.00 148.01 C 367.32 145.22 361.57 145.89 356.42 146.45 Z" />
</g>
<g id="#000000ff">
<path fill="#000000" stroke="#000000" stroke-width="0.09375" opacity="1.00" d=" M 481.44 9.54 C 499.13 6.74 519.02 10.84 531.24 24.75 C 541.47 35.16 545.08 50.48 543.71 64.69 C 540.04 90.53 521.83 113.57 498.01 124.01 C 477.21 133.82 449.99 134.75 431.56 119.45 C 417.88 108.62 412.76 89.94 415.21 73.11 C 420.30 40.59 449.28 14.25 481.44 9.54 M 490.96 32.80 C 482.94 34.89 475.52 40.13 471.33 47.33 C 467.87 54.02 472.13 62.72 479.10 64.90 C 488.39 65.89 496.67 59.46 505.94 60.52 C 505.44 64.79 502.70 67.92 499.49 70.36 C 496.75 69.16 494.09 67.69 491.19 66.94 C 487.36 69.46 483.95 72.55 480.44 75.47 C 485.23 79.13 490.85 83.80 497.33 81.35 C 505.42 78.93 512.95 73.53 517.02 66.03 C 521.47 57.25 513.32 44.43 503.15 46.29 C 495.97 47.47 489.38 50.62 482.34 52.32 C 482.79 49.81 483.57 47.37 484.56 45.02 C 487.59 45.33 490.63 46.07 493.71 45.94 C 497.84 44.12 501.07 40.75 504.62 38.00 C 500.62 35.35 496.15 31.46 490.96 32.80 M 446.68 62.33 C 452.74 70.95 459.20 79.33 464.55 88.42 C 465.74 90.50 464.37 92.70 462.76 94.04 C 459.97 93.67 457.72 91.85 455.48 90.31 C 452.14 93.38 448.84 96.49 445.55 99.61 C 448.50 102.75 452.03 105.45 456.15 106.87 C 467.60 107.65 481.03 97.52 478.82 85.24 C 474.00 73.74 465.67 64.15 458.81 53.86 C 454.78 56.69 450.73 59.53 446.68 62.33 Z" />
</g>
</svg>
